<svg width="156" height="156" viewBox="0 0 156 156" fill="none" xmlns="http://www.w3.org/2000/svg">
<path opacity="0.9" d="M78 0L85.4194 7.40884L94.2171 1.70449L99.934 10.494L109.725 6.74345L113.49 16.5295L123.847 14.8967L125.495 25.2516L135.965 25.8078L135.424 36.279L145.55 39L142.843 49.1298L152.182 53.8967L147.429 63.2424L155.573 69.8468L148.98 78L155.573 86.1532L147.429 92.7576L152.182 102.103L142.843 106.87L145.55 117L135.424 119.721L135.965 130.192L125.495 130.748L123.847 141.103L113.49 139.47L109.725 149.257L99.934 145.506L94.2171 154.296L85.4194 148.591L78 156L70.5806 148.591L61.7829 154.296L56.066 145.506L46.2745 149.257L42.51 139.47L32.1528 141.103L30.5051 130.748L20.0347 130.192L20.576 119.721L10.45 117L13.1565 106.87L3.81759 102.103L8.57108 92.7576L0.427292 86.1532L7.02 78L0.427292 69.8468L8.57108 63.2424L3.81759 53.8967L13.1565 49.1298L10.45 39L20.576 36.279L20.0347 25.8078L30.5051 25.2516L32.1528 14.8967L42.51 16.5295L46.2745 6.74345L56.066 10.494L61.7829 1.70449L70.5806 7.40884L78 0Z" fill="#1D4ED8" fill-opacity="0.89"/>
<line x1="44.044" y1="81.3821" x2="67.3821" y2="100.956" stroke="white" stroke-width="10" stroke-linecap="round"/>
<line x1="67.555" y1="100.943" x2="112.943" y2="49.445" stroke="white" stroke-width="10" stroke-linecap="round"/>
</svg>
